<svg version="1.1" xmlns="http://www.w3.org/2000/svg" xmlns:xlink="http://www.w3.org/1999/xlink" x="0px" y="0px" width="48" height="48" viewBox="0 0 48 48" enable-background="new 0 0 48 48" xml:space="preserve">
<rect x="1.998" y="10" fill="#ECEFF1" width="44" height="27"/>
<g>
	<rect x="2" y="10" fill="#F44336" width="44" height="3"/>
	<rect x="2" y="16" fill="#F44336" width="44" height="3"/>
	<rect x="2" y="22" fill="#F44336" width="44" height="3"/>
	<rect x="2" y="28" fill="#F44336" width="44" height="3"/>
	<rect x="2" y="34" fill="#F44336" width="44" height="3"/>
</g>
<rect x="2" y="10" fill="#3F51B5" width="21" height="15"/>
<g>
	<polygon fill="#FFFFFF" points="4.25,12 4.713,12.988 5.75,13.146 5,13.916 5.178,15 4.25,14.488 3.322,15 3.5,13.916 2.75,13.146 &#10;&#9;&#9;3.787,12.988 &#9;"/>
	<polygon fill="#FFFFFF" points="8.25,12 8.713,12.988 9.75,13.146 9,13.916 9.178,15 8.25,14.488 7.322,15 7.5,13.916 6.75,13.146 &#10;&#9;&#9;7.787,12.988 &#9;"/>
	<polygon fill="#FFFFFF" points="12.25,12 12.713,12.988 13.75,13.146 13,13.916 13.178,15 12.25,14.488 11.322,15 11.5,13.916 &#10;&#9;&#9;10.75,13.146 11.787,12.988 &#9;"/>
	<polygon fill="#FFFFFF" points="16.25,12 16.713,12.988 17.75,13.146 17,13.916 17.178,15 16.25,14.488 15.322,15 15.5,13.916 &#10;&#9;&#9;14.75,13.146 15.787,12.988 &#9;"/>
	<polygon fill="#FFFFFF" points="20,12 20.463,12.988 21.5,13.146 20.75,13.916 20.928,15 20,14.488 19.072,15 19.25,13.916 &#10;&#9;&#9;18.5,13.146 19.537,12.988 &#9;"/>
	<polygon fill="#FFFFFF" points="4.25,20 4.713,20.988 5.75,21.146 5,21.916 5.178,23 4.25,22.488 3.322,23 3.5,21.916 2.75,21.146 &#10;&#9;&#9;3.787,20.988 &#9;"/>
	<polygon fill="#FFFFFF" points="8.25,20 8.713,20.988 9.75,21.146 9,21.916 9.178,23 8.25,22.488 7.322,23 7.5,21.916 6.75,21.146 &#10;&#9;&#9;7.787,20.988 &#9;"/>
	<polygon fill="#FFFFFF" points="12.25,20 12.713,20.988 13.75,21.146 13,21.916 13.178,23 12.25,22.488 11.322,23 11.5,21.916 &#10;&#9;&#9;10.75,21.146 11.787,20.988 &#9;"/>
	<polygon fill="#FFFFFF" points="16.25,20 16.713,20.988 17.75,21.146 17,21.916 17.178,23 16.25,22.488 15.322,23 15.5,21.916 &#10;&#9;&#9;14.75,21.146 15.787,20.988 &#9;"/>
	<polygon fill="#FFFFFF" points="20,20 20.463,20.988 21.5,21.146 20.75,21.916 20.928,23 20,22.488 19.072,23 19.25,21.916 &#10;&#9;&#9;18.5,21.146 19.537,20.988 &#9;"/>
	<polygon fill="#FFFFFF" points="5.25,16 5.713,16.988 6.75,17.146 6,17.916 6.178,19 5.25,18.488 4.322,19 4.5,17.916 3.75,17.146 &#10;&#9;&#9;4.787,16.988 &#9;"/>
	<polygon fill="#FFFFFF" points="9.25,16 9.713,16.988 10.75,17.146 10,17.916 10.178,19 9.25,18.488 8.322,19 8.5,17.916 &#10;&#9;&#9;7.75,17.146 8.787,16.988 &#9;"/>
	<polygon fill="#FFFFFF" points="13.25,16 13.713,16.988 14.75,17.146 14,17.916 14.178,19 13.25,18.488 12.322,19 12.5,17.916 &#10;&#9;&#9;11.75,17.146 12.787,16.988 &#9;"/>
	<polygon fill="#FFFFFF" points="17.25,16 17.713,16.988 18.75,17.146 18,17.916 18.178,19 17.25,18.488 16.322,19 16.5,17.916 &#10;&#9;&#9;15.75,17.146 16.787,16.988 &#9;"/>
	<polygon fill="#FFFFFF" points="21,16 21.463,16.988 22.5,17.146 21.75,17.916 21.928,19 21,18.488 20.072,19 20.25,17.916 &#10;&#9;&#9;19.5,17.146 20.537,16.988 &#9;"/>
</g>
</svg>